<svg width="447" height="27" viewBox="0 0 447 27" fill="none" xmlns="http://www.w3.org/2000/svg">
<path d="M180.035 17.5234C180.035 16.8594 179.801 16.3516 179.332 16C178.863 15.6406 178.02 15.2656 176.801 14.875C175.582 14.4766 174.617 14.0859 173.906 13.7031C171.969 12.6562 171 11.2461 171 9.47266C171 8.55078 171.258 7.73047 171.773 7.01172C172.297 6.28516 173.043 5.71875 174.012 5.3125C174.988 4.90625 176.082 4.70312 177.293 4.70312C178.512 4.70312 179.598 4.92578 180.551 5.37109C181.504 5.80859 182.242 6.42969 182.766 7.23438C183.297 8.03906 183.562 8.95312 183.562 9.97656H180.047C180.047 9.19531 179.801 8.58984 179.309 8.16016C178.816 7.72266 178.125 7.50391 177.234 7.50391C176.375 7.50391 175.707 7.6875 175.23 8.05469C174.754 8.41406 174.516 8.89062 174.516 9.48438C174.516 10.0391 174.793 10.5039 175.348 10.8789C175.91 11.2539 176.734 11.6055 177.82 11.9336C179.82 12.5352 181.277 13.2812 182.191 14.1719C183.105 15.0625 183.562 16.1719 183.562 17.5C183.562 18.9766 183.004 20.1367 181.887 20.9805C180.77 21.8164 179.266 22.2344 177.375 22.2344C176.062 22.2344 174.867 21.9961 173.789 21.5195C172.711 21.0352 171.887 20.375 171.316 19.5391C170.754 18.7031 170.473 17.7344 170.473 16.6328H174C174 18.5156 175.125 19.457 177.375 19.457C178.211 19.457 178.863 19.2891 179.332 18.9531C179.801 18.6094 180.035 18.1328 180.035 17.5234ZM197.273 15.1562L195.445 17.125V22H191.93V4.9375H195.445V12.6719L196.992 10.5508L201.34 4.9375H205.664L199.605 12.5195L205.84 22H201.656L197.273 15.1562ZM216.879 22H213.363V4.9375H216.879V22ZM229.641 19.1758H237.105V22H226.125V4.9375H229.641V19.1758ZM248.625 19.1758H256.09V22H245.109V4.9375H248.625V19.1758ZM272.941 17.5234C272.941 16.8594 272.707 16.3516 272.238 16C271.77 15.6406 270.926 15.2656 269.707 14.875C268.488 14.4766 267.523 14.0859 266.812 13.7031C264.875 12.6562 263.906 11.2461 263.906 9.47266C263.906 8.55078 264.164 7.73047 264.68 7.01172C265.203 6.28516 265.949 5.71875 266.918 5.3125C267.895 4.90625 268.988 4.70312 270.199 4.70312C271.418 4.70312 272.504 4.92578 273.457 5.37109C274.41 5.80859 275.148 6.42969 275.672 7.23438C276.203 8.03906 276.469 8.95312 276.469 9.97656H272.953C272.953 9.19531 272.707 8.58984 272.215 8.16016C271.723 7.72266 271.031 7.50391 270.141 7.50391C269.281 7.50391 268.613 7.6875 268.137 8.05469C267.66 8.41406 267.422 8.89062 267.422 9.48438C267.422 10.0391 267.699 10.5039 268.254 10.8789C268.816 11.2539 269.641 11.6055 270.727 11.9336C272.727 12.5352 274.184 13.2812 275.098 14.1719C276.012 15.0625 276.469 16.1719 276.469 17.5C276.469 18.9766 275.91 20.1367 274.793 20.9805C273.676 21.8164 272.172 22.2344 270.281 22.2344C268.969 22.2344 267.773 21.9961 266.695 21.5195C265.617 21.0352 264.793 20.375 264.223 19.5391C263.66 18.7031 263.379 17.7344 263.379 16.6328H266.906C266.906 18.5156 268.031 19.457 270.281 19.457C271.117 19.457 271.77 19.2891 272.238 18.9531C272.707 18.6094 272.941 18.1328 272.941 17.5234Z" fill="#D6D6D6"/>
<line x1="292" y1="12" x2="447" y2="12" stroke="#D6D6D6" stroke-width="2"/>
<line y1="12" x2="155" y2="12" stroke="#D6D6D6" stroke-width="2"/>
</svg>
