<svg width="447" height="27" viewBox="0 0 447 27" fill="none" xmlns="http://www.w3.org/2000/svg">
<path d="M143.496 22H139.98V4.9375H143.496V22ZM166.617 22H163.102L156.258 10.7734V22H152.742V4.9375H156.258L163.113 16.1875V4.9375H166.617V22ZM187.805 7.78516H182.578V22H179.062V7.78516H173.906V4.9375H187.805V7.78516ZM205.359 14.6055H198.609V19.1758H206.531V22H195.094V4.9375H206.508V7.78516H198.609V11.8516H205.359V14.6055ZM220.887 15.7539H218.086V22H214.57V4.9375H220.91C222.926 4.9375 224.48 5.38672 225.574 6.28516C226.668 7.18359 227.215 8.45312 227.215 10.0938C227.215 11.2578 226.961 12.2305 226.453 13.0117C225.953 13.7852 225.191 14.4023 224.168 14.8633L227.859 21.8359V22H224.086L220.887 15.7539ZM218.086 12.9062H220.922C221.805 12.9062 222.488 12.6836 222.973 12.2383C223.457 11.7852 223.699 11.1641 223.699 10.375C223.699 9.57031 223.469 8.9375 223.008 8.47656C222.555 8.01562 221.855 7.78516 220.91 7.78516H218.086V12.9062ZM246.141 14.6055H239.391V19.1758H247.312V22H235.875V4.9375H247.289V7.78516H239.391V11.8516H246.141V14.6055ZM264.199 17.5234C264.199 16.8594 263.965 16.3516 263.496 16C263.027 15.6406 262.184 15.2656 260.965 14.875C259.746 14.4766 258.781 14.0859 258.07 13.7031C256.133 12.6562 255.164 11.2461 255.164 9.47266C255.164 8.55078 255.422 7.73047 255.938 7.01172C256.461 6.28516 257.207 5.71875 258.176 5.3125C259.152 4.90625 260.246 4.70312 261.457 4.70312C262.676 4.70312 263.762 4.92578 264.715 5.37109C265.668 5.80859 266.406 6.42969 266.93 7.23438C267.461 8.03906 267.727 8.95312 267.727 9.97656H264.211C264.211 9.19531 263.965 8.58984 263.473 8.16016C262.98 7.72266 262.289 7.50391 261.398 7.50391C260.539 7.50391 259.871 7.6875 259.395 8.05469C258.918 8.41406 258.68 8.89062 258.68 9.48438C258.68 10.0391 258.957 10.5039 259.512 10.8789C260.074 11.2539 260.898 11.6055 261.984 11.9336C263.984 12.5352 265.441 13.2812 266.355 14.1719C267.27 15.0625 267.727 16.1719 267.727 17.5C267.727 18.9766 267.168 20.1367 266.051 20.9805C264.934 21.8164 263.43 22.2344 261.539 22.2344C260.227 22.2344 259.031 21.9961 257.953 21.5195C256.875 21.0352 256.051 20.375 255.48 19.5391C254.918 18.7031 254.637 17.7344 254.637 16.6328H258.164C258.164 18.5156 259.289 19.457 261.539 19.457C262.375 19.457 263.027 19.2891 263.496 18.9531C263.965 18.6094 264.199 18.1328 264.199 17.5234ZM288.234 7.78516H283.008V22H279.492V7.78516H274.336V4.9375H288.234V7.78516ZM304.371 17.5234C304.371 16.8594 304.137 16.3516 303.668 16C303.199 15.6406 302.355 15.2656 301.137 14.875C299.918 14.4766 298.953 14.0859 298.242 13.7031C296.305 12.6562 295.336 11.2461 295.336 9.47266C295.336 8.55078 295.594 7.73047 296.109 7.01172C296.633 6.28516 297.379 5.71875 298.348 5.3125C299.324 4.90625 300.418 4.70312 301.629 4.70312C302.848 4.70312 303.934 4.92578 304.887 5.37109C305.84 5.80859 306.578 6.42969 307.102 7.23438C307.633 8.03906 307.898 8.95312 307.898 9.97656H304.383C304.383 9.19531 304.137 8.58984 303.645 8.16016C303.152 7.72266 302.461 7.50391 301.57 7.50391C300.711 7.50391 300.043 7.6875 299.566 8.05469C299.09 8.41406 298.852 8.89062 298.852 9.48438C298.852 10.0391 299.129 10.5039 299.684 10.8789C300.246 11.2539 301.07 11.6055 302.156 11.9336C304.156 12.5352 305.613 13.2812 306.527 14.1719C307.441 15.0625 307.898 16.1719 307.898 17.5C307.898 18.9766 307.34 20.1367 306.223 20.9805C305.105 21.8164 303.602 22.2344 301.711 22.2344C300.398 22.2344 299.203 21.9961 298.125 21.5195C297.047 21.0352 296.223 20.375 295.652 19.5391C295.09 18.7031 294.809 17.7344 294.809 16.6328H298.336C298.336 18.5156 299.461 19.457 301.711 19.457C302.547 19.457 303.199 19.2891 303.668 18.9531C304.137 18.6094 304.371 18.1328 304.371 17.5234Z" fill="#D6D6D6"/>
<line x1="323" y1="12" x2="447" y2="12" stroke="#D6D6D6" stroke-width="2"/>
<line y1="12" x2="124" y2="12" stroke="#D6D6D6" stroke-width="2"/>
</svg>
