<svg width="447" height="27" viewBox="0 0 447 27" fill="none" xmlns="http://www.w3.org/2000/svg">
<path d="M146.016 14.6055H139.266V19.1758H147.188V22H135.75V4.9375H147.164V7.78516H139.266V11.8516H146.016V14.6055ZM155.227 22V4.9375H160.477C161.977 4.9375 163.316 5.27734 164.496 5.95703C165.684 6.62891 166.609 7.58984 167.273 8.83984C167.938 10.082 168.27 11.4961 168.27 13.082V13.8672C168.27 15.4531 167.941 16.8633 167.285 18.0977C166.637 19.332 165.719 20.2891 164.531 20.9688C163.344 21.6484 162.004 21.9922 160.512 22H155.227ZM158.742 7.78516V19.1758H160.441C161.816 19.1758 162.867 18.7266 163.594 17.8281C164.32 16.9297 164.691 15.6445 164.707 13.9727V13.0703C164.707 11.3359 164.348 10.0234 163.629 9.13281C162.91 8.23438 161.859 7.78516 160.477 7.78516H158.742ZM189.727 4.9375V16.1758C189.727 18.043 189.141 19.5195 187.969 20.6055C186.805 21.6914 185.211 22.2344 183.188 22.2344C181.195 22.2344 179.613 21.707 178.441 20.6523C177.27 19.5977 176.672 18.1484 176.648 16.3047V4.9375H180.164V16.1992C180.164 17.3164 180.43 18.1328 180.961 18.6484C181.5 19.1562 182.242 19.4102 183.188 19.4102C185.164 19.4102 186.168 18.3711 186.199 16.293V4.9375H189.727ZM211.98 16.3164C211.848 18.1523 211.168 19.5977 209.941 20.6523C208.723 21.707 207.113 22.2344 205.113 22.2344C202.926 22.2344 201.203 21.5 199.945 20.0312C198.695 18.5547 198.07 16.5312 198.07 13.9609V12.918C198.07 11.2773 198.359 9.83203 198.938 8.58203C199.516 7.33203 200.34 6.375 201.41 5.71094C202.488 5.03906 203.738 4.70312 205.16 4.70312C207.129 4.70312 208.715 5.23047 209.918 6.28516C211.121 7.33984 211.816 8.82031 212.004 10.7266H208.488C208.402 9.625 208.094 8.82812 207.562 8.33594C207.039 7.83594 206.238 7.58594 205.16 7.58594C203.988 7.58594 203.109 8.00781 202.523 8.85156C201.945 9.6875 201.648 10.9883 201.633 12.7539V14.043C201.633 15.8867 201.91 17.2344 202.465 18.0859C203.027 18.9375 203.91 19.3633 205.113 19.3633C206.199 19.3633 207.008 19.1172 207.539 18.625C208.078 18.125 208.387 17.3555 208.465 16.3164H211.98ZM229.898 18.4844H223.734L222.562 22H218.824L225.176 4.9375H228.434L234.82 22H231.082L229.898 18.4844ZM224.684 15.6367H228.949L226.805 9.25L224.684 15.6367ZM254.531 7.78516H249.305V22H245.789V7.78516H240.633V4.9375H254.531V7.78516ZM265.559 22H262.043V4.9375H265.559V22ZM288.82 13.8555C288.82 15.5352 288.523 17.0078 287.93 18.2734C287.336 19.5391 286.484 20.5156 285.375 21.2031C284.273 21.8906 283.008 22.2344 281.578 22.2344C280.164 22.2344 278.902 21.8945 277.793 21.2148C276.684 20.5352 275.824 19.5664 275.215 18.3086C274.605 17.043 274.297 15.5898 274.289 13.9492V13.1055C274.289 11.4258 274.59 9.94922 275.191 8.67578C275.801 7.39453 276.656 6.41406 277.758 5.73438C278.867 5.04687 280.133 4.70312 281.555 4.70312C282.977 4.70312 284.238 5.04687 285.34 5.73438C286.449 6.41406 287.305 7.39453 287.906 8.67578C288.516 9.94922 288.82 11.4219 288.82 13.0938V13.8555ZM285.258 13.082C285.258 11.293 284.938 9.93359 284.297 9.00391C283.656 8.07422 282.742 7.60938 281.555 7.60938C280.375 7.60938 279.465 8.07031 278.824 8.99219C278.184 9.90625 277.859 11.25 277.852 13.0234V13.8555C277.852 15.5977 278.172 16.9492 278.812 17.9102C279.453 18.8711 280.375 19.3516 281.578 19.3516C282.758 19.3516 283.664 18.8906 284.297 17.9688C284.93 17.0391 285.25 15.6875 285.258 13.9141V13.082ZM311.227 22H307.711L300.867 10.7734V22H297.352V4.9375H300.867L307.723 16.1875V4.9375H311.227V22Z" fill="#D6D6D6"/>
<line x1="327" y1="12" x2="447" y2="12" stroke="#D6D6D6" stroke-width="2"/>
<line y1="12" x2="120" y2="12" stroke="#D6D6D6" stroke-width="2"/>
</svg>
