<svg width="447" height="27" viewBox="0 0 447 27" fill="none" xmlns="http://www.w3.org/2000/svg">
<path d="M156.48 17.5234C156.48 16.8594 156.246 16.3516 155.777 16C155.309 15.6406 154.465 15.2656 153.246 14.875C152.027 14.4766 151.062 14.0859 150.352 13.7031C148.414 12.6562 147.445 11.2461 147.445 9.47266C147.445 8.55078 147.703 7.73047 148.219 7.01172C148.742 6.28516 149.488 5.71875 150.457 5.3125C151.434 4.90625 152.527 4.70312 153.738 4.70312C154.957 4.70312 156.043 4.92578 156.996 5.37109C157.949 5.80859 158.688 6.42969 159.211 7.23438C159.742 8.03906 160.008 8.95312 160.008 9.97656H156.492C156.492 9.19531 156.246 8.58984 155.754 8.16016C155.262 7.72266 154.57 7.50391 153.68 7.50391C152.82 7.50391 152.152 7.6875 151.676 8.05469C151.199 8.41406 150.961 8.89062 150.961 9.48438C150.961 10.0391 151.238 10.5039 151.793 10.8789C152.355 11.2539 153.18 11.6055 154.266 11.9336C156.266 12.5352 157.723 13.2812 158.637 14.1719C159.551 15.0625 160.008 16.1719 160.008 17.5C160.008 18.9766 159.449 20.1367 158.332 20.9805C157.215 21.8164 155.711 22.2344 153.82 22.2344C152.508 22.2344 151.312 21.9961 150.234 21.5195C149.156 21.0352 148.332 20.375 147.762 19.5391C147.199 18.7031 146.918 17.7344 146.918 16.6328H150.445C150.445 18.5156 151.57 19.457 153.82 19.457C154.656 19.457 155.309 19.2891 155.777 18.9531C156.246 18.6094 156.48 18.1328 156.48 17.5234ZM181.289 4.9375V16.1758C181.289 18.043 180.703 19.5195 179.531 20.6055C178.367 21.6914 176.773 22.2344 174.75 22.2344C172.758 22.2344 171.176 21.707 170.004 20.6523C168.832 19.5977 168.234 18.1484 168.211 16.3047V4.9375H171.727V16.1992C171.727 17.3164 171.992 18.1328 172.523 18.6484C173.062 19.1562 173.805 19.4102 174.75 19.4102C176.727 19.4102 177.73 18.3711 177.762 16.293V4.9375H181.289ZM194.742 4.9375L199.125 17.3125L203.484 4.9375H208.102V22H204.574V17.3359L204.926 9.28516L200.32 22H197.906L193.312 9.29688L193.664 17.3359V22H190.148V4.9375H194.742ZM221.742 4.9375L226.125 17.3125L230.484 4.9375H235.102V22H231.574V17.3359L231.926 9.28516L227.32 22H224.906L220.312 9.29688L220.664 17.3359V22H217.148V4.9375H221.742ZM253.781 18.4844H247.617L246.445 22H242.707L249.059 4.9375H252.316L258.703 22H254.965L253.781 18.4844ZM248.566 15.6367H252.832L250.688 9.25L248.566 15.6367ZM272.59 15.7539H269.789V22H266.273V4.9375H272.613C274.629 4.9375 276.184 5.38672 277.277 6.28516C278.371 7.18359 278.918 8.45312 278.918 10.0938C278.918 11.2578 278.664 12.2305 278.156 13.0117C277.656 13.7852 276.895 14.4023 275.871 14.8633L279.562 21.8359V22H275.789L272.59 15.7539ZM269.789 12.9062H272.625C273.508 12.9062 274.191 12.6836 274.676 12.2383C275.16 11.7852 275.402 11.1641 275.402 10.375C275.402 9.57031 275.172 8.9375 274.711 8.47656C274.258 8.01562 273.559 7.78516 272.613 7.78516H269.789V12.9062ZM293.461 12.625L297.012 4.9375H300.855L295.254 15.8125V22H291.68V15.8125L286.078 4.9375H289.934L293.461 12.625Z" fill="#D6D6D6"/>
<line x1="315" y1="12" x2="447" y2="12" stroke="#D6D6D6" stroke-width="2"/>
<line y1="12" x2="132" y2="12" stroke="#D6D6D6" stroke-width="2"/>
</svg>
